<svg width="16" height="16" viewBox="0 0 16 16" fill="none" xmlns="http://www.w3.org/2000/svg">
<g clip-path="url(#clip0_571_1048)">
<path fill-rule="evenodd" clip-rule="evenodd" d="M0.666626 1.89201C0.666979 1.56714 0.796189 1.25567 1.02591 1.02596C1.25563 0.796237 1.56709 0.667026 1.89196 0.666673H14.1066C14.2677 0.66641 14.4272 0.697915 14.5761 0.759385C14.7249 0.820854 14.8602 0.91108 14.9741 1.0249C15.0881 1.13872 15.1784 1.27389 15.2401 1.42268C15.3017 1.57147 15.3334 1.73096 15.3333 1.89201V14.1067C15.3333 14.4319 15.2041 14.7438 14.9742 14.9738C14.7443 15.2038 14.4325 15.3332 14.1073 15.3333H1.89196C1.56697 15.333 1.25541 15.2037 1.02567 14.9738C0.795935 14.744 0.666802 14.4323 0.666626 14.1073V1.89201ZM6.47196 6.25867H8.45796V7.25601C8.74463 6.68267 9.47796 6.16667 10.58 6.16667C12.6926 6.16667 13.1933 7.30867 13.1933 9.40401V13.2853H11.0553V9.88134C11.0553 8.68801 10.7686 8.01467 10.0406 8.01467C9.03063 8.01467 8.61063 8.74067 8.61063 9.88134V13.2853H6.47196V6.25867ZM2.80529 13.194H4.94396V6.16667H2.80529V13.194ZM5.24996 3.87467C5.25399 4.05779 5.22141 4.23986 5.15412 4.41022C5.08683 4.58057 4.98619 4.73576 4.85811 4.86669C4.73003 4.99763 4.57709 5.10166 4.40826 5.17268C4.23943 5.2437 4.05812 5.28029 3.87496 5.28029C3.6918 5.28029 3.51049 5.2437 3.34166 5.17268C3.17283 5.10166 3.01988 4.99763 2.89181 4.86669C2.76373 4.73576 2.66309 4.58057 2.5958 4.41022C2.52851 4.23986 2.49593 4.05779 2.49996 3.87467C2.50787 3.51524 2.65622 3.1732 2.91322 2.9218C3.17022 2.67039 3.51544 2.52962 3.87496 2.52962C4.23448 2.52962 4.5797 2.67039 4.8367 2.9218C5.0937 3.1732 5.24204 3.51524 5.24996 3.87467Z" fill="white"/>
</g>
<defs>
<clipPath id="clip0_571_1048">
<rect width="16" height="16" fill="white"/>
</clipPath>
</defs>
</svg>
