<svg width="86" height="85" viewBox="0 0 86 85" fill="none" xmlns="http://www.w3.org/2000/svg">
<path d="M43.0177 46.0523C45.1367 46.0522 47.2074 46.6857 48.9636 47.8714C50.7198 49.0571 52.0814 50.7409 52.8733 52.7063C53.6653 54.6718 53.8515 56.8291 53.408 58.9012C52.9644 60.9732 51.9115 62.8654 50.3844 64.3344L43.6198 70.8405H53.6427V77.9238H32.3927L32.3892 71.818L45.4721 59.2273C45.8942 58.8216 46.2092 58.3175 46.3888 57.7601C46.5683 57.2028 46.6069 56.6097 46.5011 56.0338C46.3952 55.4579 46.1482 54.9173 45.7822 54.4602C45.4162 54.0032 44.9426 53.644 44.4038 53.4149C43.865 53.1857 43.2777 53.0937 42.6947 53.1471C42.1116 53.2005 41.5508 53.3977 41.0626 53.7209C40.5744 54.0442 40.1739 54.4834 39.897 54.9993C39.6202 55.5153 39.4755 56.0918 39.4761 56.6773H32.3927C32.3927 53.8594 33.5122 51.1569 35.5047 49.1643C37.4973 47.1718 40.1998 46.0523 43.0177 46.0523ZM64.2677 46.0523V60.219H71.3511V46.0523H78.4344V77.9273H71.3511V67.3023H57.1844V46.0523H64.2677ZM14.6844 42.5107C14.6813 46.759 15.6348 50.9535 17.4742 54.783C19.3135 58.6125 21.9915 61.9787 25.3094 64.6319V73.1886C19.9245 70.0796 15.453 65.6077 12.3445 60.2225C9.23595 54.8373 7.59999 48.7287 7.60107 42.5107H14.6844ZM43.0177 7.09401C61.3813 7.09401 76.483 21.0694 78.2573 38.969H71.1315C70.4415 33.4973 68.1697 28.3458 64.5947 24.1463C61.0198 19.9467 56.2971 16.8817 51.0057 15.3269C45.7143 13.7722 40.0842 13.7953 34.8057 15.3935C29.5273 16.9917 24.8299 20.0955 21.2896 24.3242L28.8511 31.8857H7.60107V10.6357L16.2604 19.2986C19.5825 15.4632 23.6914 12.388 28.3079 10.282C32.9243 8.17608 37.9401 7.08877 43.0142 7.09401" fill="white"/>
</svg>
