<svg width="86" height="85" viewBox="0 0 86 85" fill="none" xmlns="http://www.w3.org/2000/svg">
<path d="M43.0001 47.508L48.1638 52.6718C45.4238 56.2001 43.5569 60.3263 42.7155 64.7137C41.8741 69.101 42.082 73.6251 43.3223 77.9168C35.477 77.9973 27.8283 75.4627 21.5836 70.713L20.5848 69.9232L43.0001 47.508ZM53.2248 57.7328L65.4153 69.9232C61.0876 73.4721 55.9761 75.938 50.5048 77.1164C49.3743 73.9035 49.0313 70.4663 49.5046 67.0934C49.9779 63.7205 51.2537 60.5104 53.2248 57.7328ZM32.8248 37.3364L37.9957 42.5001L15.5769 64.9153C10.3282 58.5082 7.49875 50.4599 7.58339 42.1778C11.875 43.4182 16.3992 43.6261 20.7865 42.7847C25.1739 41.9433 29.3001 40.0764 32.8284 37.3364H32.8248ZM77.6163 50.0014C76.5366 55.039 74.36 59.7767 71.2413 63.8776L70.4267 64.9153L58.2328 52.7249C61.0101 50.7532 64.22 49.4768 67.5929 49.0029C70.9658 48.5289 74.4032 48.8714 77.6163 50.0014ZM70.4267 20.0849C75.6734 26.4916 78.5015 34.5384 78.4167 42.8189C74.3044 41.6301 69.9762 41.3885 65.7572 42.1123C61.5382 42.8361 57.538 44.5065 54.0571 46.998L53.1717 47.6603L48.008 42.5001L70.4267 20.0849ZM42.6742 7.08345C50.5191 7.0019 58.1678 9.53526 64.413 14.2837L65.4117 15.0735L43.0001 37.4922L37.8363 32.3285C40.5763 28.8001 42.4432 24.6739 43.2846 20.2866C44.126 15.8992 43.9181 11.3751 42.6778 7.08345H42.6742ZM15.5769 20.0814L27.7673 32.2718C24.99 34.2435 21.7801 35.5199 18.4072 35.9938C15.0343 36.4677 11.5969 36.1253 8.38381 34.9953C9.56063 29.5231 12.0289 24.4104 15.5769 20.0814ZM35.4988 7.88033C36.5733 10.9346 36.9369 14.1937 36.5619 17.4096C36.1869 20.6256 35.0832 23.7136 33.3348 26.4387L32.7753 27.2639L20.5813 15.077C24.909 11.5282 30.0205 9.06227 35.4917 7.88387L35.4988 7.88033Z" fill="white"/>
</svg>
