<svg width="86" height="85" viewBox="0 0 86 85" fill="none" xmlns="http://www.w3.org/2000/svg">
<path d="M45.1037 82.3721L45.0612 82.3792L44.8098 82.5032L44.739 82.5173L44.6894 82.5032L44.4379 82.3757C44.4001 82.3662 44.3718 82.3733 44.3529 82.3969L44.3387 82.4323L44.2785 83.9482L44.2962 84.019L44.3317 84.065L44.7 84.3271L44.7531 84.3413L44.7956 84.3271L45.164 84.065L45.2065 84.0084L45.2206 83.9482L45.1604 82.4359C45.151 82.3981 45.1321 82.3769 45.1037 82.3721ZM46.0387 81.9719L45.9892 81.979L45.3375 82.3084L45.3021 82.3438L45.2915 82.3828L45.3552 83.9057L45.3729 83.9482L45.4012 83.9765L46.1131 84.3023C46.158 84.3141 46.1922 84.3047 46.2158 84.274L46.23 84.2244L46.1096 82.0498C46.0978 82.005 46.0742 81.979 46.0387 81.9719ZM43.5065 81.979C43.4908 81.9695 43.4722 81.9665 43.4544 81.9704C43.4366 81.9744 43.421 81.9851 43.4108 82.0003L43.3896 82.0498L43.2692 84.2244C43.2715 84.2669 43.2916 84.2953 43.3294 84.3094L43.3825 84.3023L44.0944 83.973L44.1298 83.9446L44.1404 83.9057L44.2042 82.3828L44.1935 82.3403L44.1581 82.3048L43.5065 81.979Z" fill="white"/>
<path d="M34.1458 42.5C38.3727 42.5 42.4265 40.8209 45.4153 37.832C48.4042 34.8432 50.0833 30.7894 50.0833 26.5625C50.0833 22.3356 48.4042 18.2818 45.4153 15.293C42.4265 12.3041 38.3727 10.625 34.1458 10.625C29.9189 10.625 25.8652 12.3041 22.8763 15.293C19.8874 18.2818 18.2083 22.3356 18.2083 26.5625C18.2083 30.7894 19.8874 34.8432 22.8763 37.832C25.8652 40.8209 29.9189 42.5 34.1458 42.5ZM74.875 31.875C74.875 34.6929 73.7556 37.3954 71.763 39.388C69.7704 41.3806 67.0679 42.5 64.25 42.5C61.4321 42.5 58.7295 41.3806 56.737 39.388C54.7444 37.3954 53.625 34.6929 53.625 31.875C53.625 29.0571 54.7444 26.3546 56.737 24.362C58.7295 22.3694 61.4321 21.25 64.25 21.25C67.0679 21.25 69.7704 22.3694 71.763 24.362C73.7556 26.3546 74.875 29.0571 74.875 31.875ZM34.1458 46.0417C41.2044 46.0417 47.6219 48.195 52.3394 51.2337C54.7016 52.7567 56.7239 54.5523 58.1937 56.5108C59.6352 58.441 60.7083 60.7608 60.7083 63.2435C60.7083 65.9175 59.4687 68.0602 57.6483 69.6079C55.9306 71.06 53.6923 72.0021 51.3796 72.6502C46.7294 73.95 40.5775 74.375 34.1458 74.375C27.7141 74.375 21.5623 73.95 16.9156 72.6502C14.5994 72.0021 12.361 71.06 10.6469 69.6079C8.81935 68.0637 7.58331 65.9175 7.58331 63.2435C7.58331 60.7573 8.65644 58.441 10.0979 56.5144C11.5677 54.5523 13.59 52.7531 15.9523 51.2373C20.6698 48.1915 27.0873 46.0417 34.1458 46.0417ZM64.25 46.0417C68.925 46.0417 73.1679 47.5858 76.2916 49.764C79.2029 51.7933 81.9583 54.995 81.9583 58.689C81.9583 60.7679 81.0623 62.4892 79.6987 63.7394C78.4344 64.901 76.8335 65.6094 75.2929 66.0769C72.2116 67.0083 68.245 67.2917 64.25 67.2917H63.531C63.9914 66.0592 64.25 64.7063 64.25 63.2435C64.25 59.7373 62.7519 56.6915 61.0271 54.3894C59.3058 52.0908 57.025 50.0685 54.4785 48.4004C57.503 46.8517 60.852 46.0433 64.25 46.0417Z" fill="white"/>
</svg>
