<svg width="22" height="22" viewBox="0 0 22 22" fill="none" xmlns="http://www.w3.org/2000/svg">
<g clip-path="url(#clip0_407_103)">
<path d="M8.42188 21.3125C7.70773 21.3125 7.13281 20.7376 7.13281 20.0234V14.8672H1.97656C1.26242 14.8672 0.6875 14.2923 0.6875 13.5781V8.42188C0.6875 7.70773 1.26242 7.13281 1.97656 7.13281H7.13281V1.97656C7.13281 1.26242 7.70773 0.6875 8.42188 0.6875H13.5781C14.2923 0.6875 14.8672 1.26242 14.8672 1.97656V7.13281H20.0234C20.7376 7.13281 21.3125 7.70773 21.3125 8.42188V13.5781C21.3125 14.2923 20.7376 14.8672 20.0234 14.8672H14.8672V20.0234C14.8672 20.7376 14.2923 21.3125 13.5781 21.3125H8.42188ZM8.42188 15.5117H13.5781L11 12.9336L8.42188 15.5117ZM8.42188 12.2891H13.5781L11 9.71094L8.42188 12.2891ZM8.42188 9.06641H13.5781L11 6.48828L8.42188 9.06641Z" fill="black"/>
</g>
<defs>
<clipPath id="clip0_407_103">
<rect width="22" height="22" fill="white"/>
</clipPath>
</defs>
</svg>
