<svg width="71" height="72" viewBox="0 0 71 72" fill="none" xmlns="http://www.w3.org/2000/svg">
<path d="M23.6652 41.1181C24.2754 42.1831 25.6399 42.5469 26.6938 41.9324L34.029 38.2093C34.1488 38.227 34.2686 38.2492 34.3951 38.2492C36.2366 38.2492 37.7232 36.7627 37.7232 34.9211L36.6138 17.4462C36.6138 16.8578 36.3801 16.2934 35.964 15.8773C35.5479 15.4612 34.9835 15.2275 34.3951 15.2275C33.8066 15.2275 33.2423 15.4612 32.8262 15.8773C32.4101 16.2934 32.1763 16.8578 32.1763 17.4462L31.1446 33.7385L24.4795 38.0873C23.9713 38.3822 23.6008 38.8668 23.4494 39.4345C23.298 40.0023 23.378 40.607 23.6719 41.1159L23.6652 41.1181ZM26.7626 21.7107C27.2722 21.4164 27.644 20.9318 27.7963 20.3634C27.9486 19.7951 27.8689 19.1894 27.5746 18.6798C27.3557 18.3 27.029 17.9936 26.6359 17.7994C26.2428 17.6052 25.8009 17.532 25.3661 17.589C24.9314 17.646 24.5233 17.8306 24.1935 18.1196C23.8638 18.4085 23.6271 18.7888 23.5134 19.2123C23.3998 19.6357 23.4143 20.0834 23.5552 20.4986C23.696 20.9139 23.9568 21.278 24.3046 21.545C24.6524 21.8119 25.0716 21.9698 25.5091 21.9985C25.9467 22.0272 26.3829 21.9255 26.7626 21.7062V21.7107ZM18.1494 41.7393C17.7692 41.9589 17.4627 42.2863 17.2687 42.6801C17.0747 43.074 17.0018 43.5165 17.0594 43.9517C17.117 44.387 17.3025 44.7953 17.5922 45.1251C17.882 45.455 18.2631 45.6914 18.6873 45.8045C19.1115 45.9176 19.5598 45.9024 19.9753 45.7606C20.3908 45.6189 20.7549 45.3571 21.0216 45.0083C21.2883 44.6595 21.4455 44.2395 21.4733 43.8014C21.5011 43.3632 21.3984 42.9267 21.178 42.5469C20.8817 42.0389 20.3966 41.6687 19.8284 41.517C19.2602 41.3653 18.655 41.4444 18.145 41.7371L18.1494 41.7393ZM20.3681 24.2644C20.1154 24.1077 19.8337 24.0034 19.5398 23.9577C19.246 23.912 18.9459 23.9259 18.6575 23.9984C18.3691 24.071 18.0982 24.2008 17.861 24.3801C17.6237 24.5595 17.4249 24.7847 17.2765 25.0424C17.128 25.3001 17.0328 25.585 16.9966 25.8802C16.9605 26.1753 16.984 26.4748 17.0658 26.7607C17.1477 27.0466 17.2862 27.3132 17.4731 27.5445C17.66 27.7758 17.8915 27.9672 18.1538 28.1073C18.6616 28.3736 19.2527 28.433 19.8033 28.2731C20.3539 28.1131 20.8213 27.7462 21.1073 27.2493C21.3933 26.7524 21.4759 26.164 21.3377 25.6076C21.1995 25.0511 20.8512 24.5698 20.3659 24.2644H20.3681ZM14.697 34.9233C14.6976 35.5124 14.9322 36.077 15.3491 36.4931C15.766 36.9092 16.3312 37.1427 16.9202 37.1421C17.5092 37.1415 18.0739 36.9069 18.49 36.49C18.9061 36.0731 19.1395 35.5079 19.139 34.9189C19.1384 34.3298 18.9038 33.7652 18.4869 33.3491C18.07 32.933 17.5048 32.6995 16.9158 32.7001C16.3267 32.7007 15.7621 32.9353 15.346 33.3522C14.9299 33.7691 14.6964 34.3343 14.697 34.9233ZM32.1741 52.4004C32.1738 52.6921 32.231 52.9809 32.3423 53.2505C32.4537 53.5201 32.617 53.7651 32.8231 53.9715C33.0291 54.178 33.2738 54.3418 33.5431 54.4537C33.8125 54.5656 34.1012 54.6233 34.3929 54.6236C34.6845 54.6239 34.9734 54.5667 35.243 54.4554C35.5125 54.344 35.7575 54.1807 35.964 53.9747C36.1704 53.7686 36.3343 53.524 36.4461 53.2546C36.558 52.9853 36.6158 52.6965 36.6161 52.4049C36.6166 51.8158 36.3832 51.2507 35.9671 50.8337C35.551 50.4168 34.9863 50.1823 34.3973 50.1817C33.8083 50.1811 33.2431 50.4145 32.8262 50.8306C32.4093 51.2467 32.1747 51.8114 32.1741 52.4004ZM23.734 48.9503C23.1238 50.0153 23.4899 51.3687 24.546 51.9789C24.9261 52.1985 25.3627 52.3006 25.8008 52.272C26.2388 52.2435 26.6585 52.0856 27.0068 51.8184C27.3551 51.5513 27.6163 51.1868 27.7575 50.7712C27.8986 50.3555 27.9132 49.9073 27.7995 49.4833C27.6858 49.0593 27.4489 48.6786 27.1188 48.3893C26.7887 48.1 26.3801 47.9151 25.9449 47.858C25.5097 47.801 25.0673 47.8743 24.6737 48.0687C24.2802 48.2631 23.9531 48.5699 23.734 48.9503ZM48.4198 24.2644C48.1575 24.4045 47.926 24.5959 47.739 24.8272C47.5521 25.0586 47.4136 25.3251 47.3318 25.611C47.25 25.897 47.2264 26.1964 47.2626 26.4916C47.2988 26.7868 47.3939 27.0717 47.5424 27.3294C47.6909 27.5871 47.8897 27.8123 48.1269 27.9916C48.3642 28.171 48.6351 28.3008 48.9235 28.3733C49.2119 28.4459 49.5119 28.4598 49.8058 28.4141C50.0997 28.3684 50.3814 28.264 50.6341 28.1073C51.1237 27.8038 51.476 27.3217 51.6166 26.7631C51.7571 26.2044 51.6749 25.613 51.3873 25.1139C51.0997 24.6148 50.6293 24.2471 50.0755 24.0886C49.5217 23.93 48.9279 23.9931 48.4198 24.2644ZM47.6077 42.5514C47.4598 42.8038 47.3632 43.083 47.3235 43.3729C47.2839 43.6628 47.302 43.9577 47.3768 44.2406C47.4516 44.5235 47.5816 44.7888 47.7593 45.0213C47.9371 45.2537 48.159 45.4487 48.4124 45.595C48.6658 45.7413 48.9457 45.836 49.2358 45.8737C49.526 45.9115 49.8208 45.8914 50.1031 45.8147C50.3855 45.7381 50.65 45.6063 50.8812 45.427C51.1125 45.2478 51.306 45.0245 51.4506 44.7701C51.7402 44.2608 51.8166 43.6576 51.6631 43.0922C51.5095 42.5267 51.1386 42.045 50.6312 41.752C50.1238 41.4591 49.5211 41.3787 48.9547 41.5285C48.3883 41.6782 47.9041 42.0459 47.6077 42.5514ZM54.0909 34.9233C54.0909 33.703 53.0969 32.7046 51.8722 32.7046C51.4333 32.7046 51.0044 32.8347 50.6395 33.0785C50.2746 33.3223 49.9902 33.6688 49.8223 34.0742C49.6544 34.4797 49.6104 34.9258 49.6961 35.3562C49.7817 35.7866 49.993 36.1819 50.3033 36.4922C50.6136 36.8025 51.0089 37.0138 51.4393 37.0994C51.8697 37.185 52.3158 37.1411 52.7213 36.9732C53.1267 36.8052 53.4732 36.5209 53.717 36.156C53.9608 35.7911 54.0909 35.3621 54.0909 34.9233ZM41.2111 51.169C41.3568 51.421 41.5507 51.6419 41.7817 51.819C42.0128 51.9961 42.2764 52.126 42.5577 52.2012C42.8389 52.2764 43.1322 52.2954 43.4208 52.2573C43.7094 52.2192 43.9876 52.1245 44.2397 51.9789C44.4917 51.8332 44.7126 51.6393 44.8897 51.4082C45.0668 51.1772 45.1966 50.9135 45.2718 50.6323C45.347 50.351 45.3661 50.0578 45.328 49.7692C45.2898 49.4806 45.1952 49.2023 45.0495 48.9503C44.9049 48.6959 44.7114 48.4726 44.4801 48.2934C44.2489 48.1141 43.9844 47.9823 43.7021 47.9056C43.4197 47.829 43.1249 47.8089 42.8347 47.8466C42.5446 47.8844 42.2647 47.9791 42.0113 48.1254C41.7579 48.2717 41.536 48.4667 41.3582 48.6991C41.1805 48.9316 41.0505 49.1969 40.9757 49.4798C40.9009 49.7627 40.8828 50.0575 40.9224 50.3475C40.9621 50.6374 41.0587 50.9166 41.2066 51.169H41.2111ZM42.0231 21.7129C42.533 22.0062 43.1386 22.085 43.7065 21.9319C44.2745 21.7788 44.7584 21.4063 45.0517 20.8964C45.3451 20.3865 45.4239 19.781 45.2707 19.213C45.1176 18.645 44.7451 18.1611 44.2352 17.8678C43.7271 17.5965 43.1334 17.5334 42.5796 17.6919C42.0258 17.8505 41.5553 18.2182 41.2677 18.7173C40.9801 19.2164 40.8979 19.8078 41.0385 20.3664C41.1791 20.925 41.5314 21.4071 42.0209 21.7107L42.0231 21.7129ZM63.6848 32.4028C62.287 16.2237 48.0426 4.23801 31.8679 5.62251C24.9372 6.22206 18.4471 9.27276 13.5632 14.2268L9.63161 10.9209L6.72949 27.2575L22.3273 21.6042L18.6996 18.5489C22.423 14.9379 27.2758 12.7184 32.4426 12.2632C38.4508 11.7528 44.4162 13.647 49.0293 17.5301C53.6425 21.4132 56.5265 26.968 57.0485 32.9753C57.559 38.9828 55.6654 44.9475 51.7832 49.5605C47.901 54.1736 42.3474 57.0581 36.3409 57.5812C23.8205 58.6373 12.8222 49.3851 11.7306 36.8736C11.5042 34.2 11.7749 31.6063 12.4184 29.1523L5.16305 31.786C4.96336 33.632 4.92786 35.5224 5.09649 37.4438C6.48986 53.6185 20.732 65.5998 36.9134 64.2153C53.088 62.8174 65.076 48.5775 63.6892 32.3984L63.6848 32.4028Z" fill="#FF0000" fill-opacity="0.3"/>
</svg>
