<svg width="54" height="85" viewBox="0 0 54 85" fill="none" xmlns="http://www.w3.org/2000/svg">
<g clip-path="url(#clip0_21_559)">
<path d="M19.0497 7.96875C19.0497 5.85531 19.8873 3.82842 21.3782 2.33399C22.8691 0.839562 24.8912 0 26.9997 0C29.1082 0 31.1303 0.839562 32.6212 2.33399C34.1121 3.82842 34.9497 5.85531 34.9497 7.96875C34.9497 10.0822 34.1121 12.1091 32.6212 13.6035C31.1303 15.0979 29.1082 15.9375 26.9997 15.9375C24.8912 15.9375 22.8691 15.0979 21.3782 13.6035C19.8873 12.1091 19.0497 10.0822 19.0497 7.96875ZM25.6747 58.4375V79.6875C25.6747 82.626 23.3063 85 20.3747 85C17.4432 85 15.0747 82.626 15.0747 79.6875V42.6494L10.3378 50.5518C8.83065 53.0586 5.56784 53.8721 3.0669 52.3613C0.565966 50.8506 -0.245596 47.5801 1.26159 45.0732L10.9175 28.9697C13.7994 24.1719 18.9669 21.2334 24.5485 21.2334H29.4675C35.0491 21.2334 40.2166 24.1719 43.0985 28.9697L52.7544 45.0732C54.2616 47.5801 53.45 50.8506 50.9491 52.3613C48.4482 53.8721 45.1853 53.0586 43.6782 50.5518L38.9247 42.6494V79.6875C38.9247 82.626 36.5563 85 33.6247 85C30.6932 85 28.3247 82.626 28.3247 79.6875V58.4375H25.6747Z" fill="white"/>
</g>
<defs>
<clipPath id="clip0_21_559">
<rect width="53" height="85" fill="white" transform="translate(0.5)"/>
</clipPath>
</defs>
</svg>
