<svg width="59" height="72" viewBox="0 0 59 72" fill="none" xmlns="http://www.w3.org/2000/svg">
<path d="M23.765 49.3157C23.0481 49.4949 22.5104 49.6741 21.9728 50.0326C21.2559 48.9573 20.7183 47.7027 20.0014 46.8066C18.7468 45.0144 17.313 43.4014 16.0585 41.6092C14.087 38.9208 12.474 36.2325 11.7572 32.8273C10.1442 24.4039 14.8039 16.1597 22.8689 12.9337C33.443 8.63237 45.63 15.8012 47.243 27.0922C47.9599 32.2896 46.3469 36.591 43.4794 40.7131C42.2248 42.5053 40.6118 44.2975 39.3573 46.2689C38.4612 47.5235 37.9235 48.778 37.0274 50.0326C36.669 50.5703 36.3105 51.1079 35.7729 51.2871C31.6508 52.9001 27.5287 54.3339 23.4066 55.7677C22.8689 55.9469 22.5104 55.7677 22.3312 55.4092C22.152 54.8716 22.152 54.3339 22.6897 54.1547C23.0481 53.9755 23.4065 53.7962 23.765 53.7962C27.3494 52.5417 30.9339 51.2871 34.5183 49.8534C34.8767 49.6742 35.2352 49.3157 35.4144 48.9573C36.8482 46.2689 38.6404 44.1183 40.4326 41.6092C42.2249 39.2793 43.8378 37.1286 44.5547 34.2611C46.3469 28.526 45.0924 23.5078 41.1495 19.2065C36.669 14.1882 30.9339 12.5752 24.4819 14.5467C18.0299 16.5181 14.4455 20.9987 13.1909 27.6299C12.2948 32.2896 13.9078 36.2325 16.5961 39.817C18.2091 41.9676 19.8221 44.1183 21.4351 46.2689C22.5105 46.9858 23.0481 48.0612 23.765 49.3157Z" fill="#00CCFF"/>
<path d="M22.8689 67.0586C22.6897 66.8794 22.3313 66.7002 22.3313 66.3417C22.3313 65.9833 22.5105 65.6248 22.6898 65.2664C22.6898 65.0872 23.0482 65.0872 23.2274 65.0872C27.1703 63.6534 31.2924 62.2196 35.2353 60.7858C36.1314 60.4274 36.4898 60.6066 36.669 61.1443C36.8483 61.682 36.4898 62.2196 35.7729 62.5781C31.6508 64.0118 27.708 65.4456 23.5859 67.0586C23.4067 66.8794 23.2274 66.8794 22.8689 67.0586Z" fill="#00CCFF"/>
<path d="M22.8689 61.1444C22.6897 60.9652 22.3313 60.786 22.3313 60.4275C22.3313 60.0691 22.5105 59.7107 22.6898 59.3522C22.6898 59.173 23.0482 59.173 23.2274 59.173C27.1703 57.7392 31.2924 56.3054 35.2353 54.8717C36.1314 54.5132 36.4898 54.6924 36.669 55.2301C36.8483 55.7678 36.669 56.3054 35.7729 56.6639C31.6508 58.0977 27.708 59.7107 23.5859 61.1444C23.4067 61.1444 23.2274 61.1444 22.8689 61.1444Z" fill="#00CCFF"/>
<path d="M35.7728 66.1627C34.5183 70.464 27.5286 72.9731 23.2273 70.6433C27.3494 69.2095 31.4715 67.5965 35.7728 66.1627Z" fill="#00CCFF"/>
<path d="M30.3962 3.43498C30.3962 4.15186 30.3962 4.86875 30.3962 5.58564C30.3962 6.1233 30.0378 6.48175 29.5001 6.48175C28.9624 6.48175 28.604 6.1233 28.604 5.58564C28.604 4.15186 28.604 2.71809 28.604 1.10509C28.604 0.567428 28.9624 0.208984 29.5001 0.208984C30.0378 0.208984 30.3962 0.567428 30.3962 1.10509C30.3962 1.82198 30.3962 2.71809 30.3962 3.43498Z" fill="#00CCFF"/>
<path d="M3.33364 28.5261C4.05052 28.5261 4.76743 28.5261 5.48432 28.5261C6.20121 28.5261 6.55966 28.8846 6.55966 29.4222C6.55966 29.9599 6.20121 30.3183 5.48432 30.3183C4.05054 30.3183 2.61678 30.3183 1.18301 30.3183C0.46612 30.3183 0.107666 29.9599 0.107666 29.4222C0.107666 28.8846 0.46612 28.5261 1.18301 28.5261C1.89989 28.5261 2.61675 28.5261 3.33364 28.5261Z" fill="#00CCFF"/>
<path d="M55.6664 30.4975C54.9495 30.4975 54.2326 30.4975 53.5157 30.4975C52.9781 30.4975 52.6196 30.1391 52.6196 29.6014C52.6196 29.0638 52.9781 28.7053 53.5157 28.7053C54.9495 28.7053 56.5625 28.7053 57.9963 28.7053C58.5339 28.7053 58.8924 29.0638 58.8924 29.6014C58.8924 30.1391 58.5339 30.4975 57.9963 30.4975C57.1002 30.4975 56.3833 30.4975 55.6664 30.4975Z" fill="#00CCFF"/>
<path d="M9.06898 8.09485C9.42742 8.27407 9.60663 8.45329 9.78585 8.63251C10.8612 9.70784 11.7573 10.604 12.8326 11.6793C13.3703 12.2169 13.3703 12.5754 12.8326 13.1131C12.4742 13.4715 11.9365 13.4715 11.3988 13.1131C10.3235 12.0377 9.24821 11.1416 8.3521 10.0663C8.17288 9.88707 7.99364 9.3494 8.17287 8.99096C8.35209 8.45329 8.88975 8.27407 9.06898 8.09485Z" fill="#00CCFF"/>
<path d="M46.5262 45.5521C46.8847 45.7313 47.0639 45.9106 47.2431 46.0898C48.3184 46.9859 49.2146 48.0612 50.2899 48.9573C50.8275 49.495 50.8276 50.0327 50.4691 50.3911C50.1107 50.7496 49.573 50.7496 49.0353 50.2119C47.96 49.1366 47.0639 48.2405 45.9886 47.1651C45.8094 46.9859 45.6301 46.4482 45.8093 46.0898C45.8093 45.9106 46.1678 45.7313 46.5262 45.5521Z" fill="#00CCFF"/>
<path d="M50.8275 9.17017C50.6483 9.52862 50.4691 9.70784 50.2899 9.88706C49.2146 10.9624 48.3184 11.8585 47.2431 12.9338C46.8847 13.2923 46.347 13.4715 45.8094 12.9338C45.4509 12.5754 45.4509 12.0377 45.8094 11.5001C46.8847 10.4247 47.7808 9.3494 48.8561 8.45329C49.0353 8.27407 49.573 8.09484 49.9314 8.27407C50.2899 8.45329 50.4691 8.99095 50.8275 9.17017Z" fill="#00CCFF"/>
<path d="M9.06875 50.7496C8.88953 50.5703 8.53109 50.3911 8.35187 50.0327C8.17265 49.8535 8.35187 49.3158 8.35187 49.1366C9.4272 48.0612 10.5025 46.8067 11.7571 45.7314C12.1155 45.3729 12.6531 45.3729 13.0116 45.7314C13.37 46.0898 13.37 46.6275 13.0116 46.9859C11.9363 48.0612 10.861 49.1366 9.78562 50.2119C9.6064 50.5703 9.42719 50.7496 9.06875 50.7496Z" fill="#00CCFF"/>
</svg>
